<?xml version="1.0" encoding="UTF-8"?> <svg xmlns="http://www.w3.org/2000/svg" id="a" viewBox="0 0 840 128.838"><path d="M91.0729,1.1434l-24.4899,85.5823h19.3595l4.013-16.6739,23.1269.0269,4.115,16.647h19.5335L112.065,1.1434h-20.992ZM93.7243,54.2854l7.7818-32.3218,7.7389,32.3218h-15.5207Z" fill="#cd2215" stroke-width="0"></path><polygon points="41.4971 34.7175 19.3465 34.7175 19.3465 1.1434 0 1.1434 0 86.7256 19.3465 86.7256 19.3465 51.2136 41.4971 51.2136 41.4971 86.7256 60.7866 86.7256 60.7866 1.1434 41.4971 1.1434 41.4971 34.7175" fill="#cd2215" stroke-width="0"></polygon><path d="M198.4051,27.518c0-8.348-2.4463-14.9059-7.2709-19.4915-4.8075-4.5674-11.657-6.8832-20.358-6.8832h-28.0283v85.5823h19.3477v-30.3244h6.161l12.4831,30.3244h21.2062l-15.2212-35.5197c7.752-4.7204,11.6803-12.6829,11.6803-23.6879ZM176.8101,37.0288c-1.4264,1.8967-3.5492,2.8188-6.4902,2.8188h-8.2244v-22.1507h8.51c5.767,0,8.4531,3.5554,8.4531,11.1891,0,3.4194-.7567,6.159-2.2485,8.1429Z" fill="#cd2215" stroke-width="0"></path><path d="M397.2915,27.518c0-8.348-2.4462-14.9059-7.2708-19.4915-4.8075-4.5674-11.657-6.8832-20.358-6.8832h-28.0283v85.5823h19.3477v-30.3244h6.161l12.4831,30.3244h21.2063l-15.2212-35.5197c7.752-4.7204,11.6803-12.6829,11.6803-23.6879ZM375.6966,37.0288c-1.4264,1.8967-3.5493,2.8188-6.4902,2.8188h-8.2244v-22.1507h8.5099c5.7671,0,8.4531,3.5554,8.4531,11.1891,0,3.4194-.7567,6.159-2.2484,8.1429Z" fill="#cd2215" stroke-width="0"></path><path d="M254.5065,42.5368c2.2709-1.4585,4.1551-3.3982,5.622-5.7924,1.9796-3.233,2.9833-7.1233,2.9833-11.563,0-7.8077-2.4248-13.8439-7.2067-17.9407-4.7235-4.0459-11.6516-6.0973-20.5928-6.0973h-26.9452v85.5823h28.7688c8.6957,0,15.4643-2.1873,20.1177-6.5013,4.6815-4.3401,7.0551-10.7961,7.0551-19.189,0-4.9361-1.0827-9.166-3.2181-12.5721-1.6536-2.6346-3.861-4.6194-6.584-5.9264ZM227.7135,17.6969h7.5988c3.0298,0,5.2043.6859,6.4634,2.0386,1.2823,1.38,1.9329,3.8069,1.9329,7.2125,0,6.0783-2.7221,8.9093-8.5668,8.9093h-7.4282v-18.1604ZM242.9841,67.8995c-1.3118,1.5674-3.2244,2.3294-5.8482,2.3294h-9.4223v-19.5853h10.5054c2.893.103,6.8001,1.2698,6.8001,10.1635,0,3.0931-.6846,5.4793-2.0349,7.0924Z" fill="#cd2215" stroke-width="0"></path><path d="M301.8176.0034c-9.7472,0-17.4856,3.3899-23.0012,10.0756-5.453,6.6103-8.218,15.8723-8.218,27.5286v14.1929c.0777,11.2603,2.9081,20.1641,8.4133,26.4729,5.5503,6.3647,13.2616,9.5921,22.9196,9.5921,9.6994,0,17.4047-3.2593,22.9016-9.6872,5.4445-6.3696,8.2051-15.3785,8.2051-26.7765v-14.1936c-.079-11.6286-2.905-20.8149-8.4-27.3127C319.0835,3.3315,311.4058.0034,301.8176.0034ZM313.6334,51.9149c-.0363,6.7815-1.0622,11.8154-3.0484,14.955-1.8918,2.9889-4.7222,4.442-8.6537,4.442-4.0838,0-7.0067-1.4896-8.9365-4.554-2.0238-3.2129-3.05-8.3795-3.05-15.3561v-14.7635c.0729-6.902,1.1222-12.0795,3.1186-15.3751,1.8946-3.1286,4.7579-4.6493,8.7542-4.6493,4.025,0,6.9041,1.58,8.8015,4.8302,1.9999,3.431,3.0143,8.8309,3.0143,16.0491v14.4217Z" fill="#cd2215" stroke-width="0"></path><polygon points="434.1513 86.7222 453.4977 86.7222 453.4977 52.8631 479.5482 52.8631 479.5482 36.367 453.4977 36.367 453.4977 17.6935 482.6836 17.6935 482.6836 1.1399 434.1513 1.1399 434.1513 86.7222" fill="#cd2215" stroke-width="0"></polygon><polygon points="575.6204 50.8114 601.7277 50.8114 601.7277 34.714 575.6204 34.714 575.6204 17.6935 606.4011 17.6935 606.4011 1.1399 556.2739 1.1399 556.2739 86.7222 606.5161 86.7222 606.5161 70.2255 575.6204 70.2255 575.6204 50.8114" fill="#cd2215" stroke-width="0"></polygon><rect x="616.2015" y="1.1399" width="19.3465" height="85.5823" fill="#cd2215" stroke-width="0"></rect><path d="M666.3621,20.8441c1.816-2.9253,4.6818-4.3473,8.7615-4.3473,3.3268,0,5.767.8263,7.2528,2.4559,1.5433,1.6964,2.5439,5.0751,2.9729,10.0413l.1024,1.1827h18.8855l-.1061-1.3923c-.7444-9.7807-3.5502-17.0983-8.3403-21.7493-4.8078-4.6681-11.9678-7.035-21.2802-7.035-9.9411,0-17.6344,3.2778-22.8659,9.7425-5.1646,6.3833-7.7833,15.5462-7.7833,27.2342v14.9348c.1554,11.5724,3.0086,20.5347,8.4802,26.6552,5.5117,6.1679,13.3159,9.2954,23.1951,9.2954,5.7165,0,11.0576-.9198,15.8747-2.7337,4.8625-1.8303,9.0277-4.5984,12.3801-8.2275l.3435-.3718v-36.058h-31.1459v15.2424h11.7425v13.247l-.9247.6402c-1.7964,1.164-4.2638,1.7654-7.3009,1.7654-4.7469,0-8.0383-1.4966-10.0622-4.5754-2.1094-3.2091-3.1792-8.5221-3.1792-15.7916v-15.0478c.073-6.9332,1.0814-12.0206,2.9975-15.1072Z" fill="#cd2215" stroke-width="0"></path><polygon points="755.0557 34.714 732.905 34.714 732.905 1.1399 713.5586 1.1399 713.5586 86.7222 732.905 86.7222 732.905 51.2101 755.0557 51.2101 755.0557 86.7222 774.3453 86.7222 774.3453 1.1399 755.0557 1.1399 755.0557 34.714" fill="#cd2215" stroke-width="0"></polygon><polygon points="779.897 1.1399 779.897 17.6935 800.0762 17.6935 800.0762 86.7222 819.4796 86.7222 819.4796 17.6935 840 17.6935 840 1.1399 779.897 1.1399" fill="#cd2215" stroke-width="0"></polygon><path d="M547.2752,27.5146c0-8.348-2.4463-14.9059-7.2709-19.4915-4.8075-4.5674-11.657-6.8832-20.358-6.8832h-28.0283v85.5823h19.3477v-30.3245h6.161l12.4831,30.3245h21.2062l-15.2212-35.5198c7.752-4.7203,11.6803-12.6829,11.6803-23.6879ZM525.6802,37.0254c-1.4264,1.8968-3.5492,2.8188-6.4902,2.8188h-8.2244v-22.1506h8.5099c5.7671,0,8.4531,3.5554,8.4531,11.1891,0,3.4193-.7567,6.159-2.2485,8.1428Z" fill="#cd2215" stroke-width="0"></path><rect y="104.1634" width="840" height="24.6746" fill="#0059a8" stroke-width="0"></rect></svg>